# xmcd
#
# Track frame offsets: 
#        182
#        12937
#        22937
#        31602
#        43590
#        57520
#        67112
#        78722
#        90040
#        100232
#        109632
#        122672
#        132810
#        144292
#        156942
#        166810
#        177677
#        193312
#
# Disc length: 2709 seconds
#
# Revision: 3
# Processed by: cddbd v1.5.2PL0 Copyright (c) Steve Scherf et al.
# Submitted via: ExactAudioCopy v0.99pb5
#
DISCID=e80a9312
DTITLE=Various Artist - COUNTRY AND WESTERN - VOLUME ONE
DYEAR=1987
DGENRE=
TTITLE0=JOHNNY CASH - Folsum Prision Blues
TTITLE1=JOHNNY CASH - Hey Porter
TTITLE2=CONWAY TWITTY - Blue Is The Way I Feel
TTITLE3=CONWAY TWITTY - You Made Me What I Am
TTITLE4=WILLIE NELSON - Home Is Where Your Happy
TTITLE5=WILLIE NELSON - I'm Building Heartaches
TTITLE6=PATSY CLINE - I've Loved And Lost Again
TTITLE7=PATSY CLINE - Just Out Of Reach
TTITLE8=FARON YOUNG - Hello Walls
TTITLE9=FARON YOUNG - I Can't Help It
TTITLE10=DON WILLIAMS - Where Do We Go From Here
TTITLE11=DON WILLIAMS - Take My Hand For A While
TTITLE12=JOHNNY PAYCHECK - I Don´t Need To Know That Right Now
TTITLE13=JOHNNY PAYCHECK - Georgia In A Jug
TTITLE14=DOLLY PARTON - Release Me
TTITLE15=DOLLY PARTON - I Wasn´t God Who Made Honky Tonk Angels
TTITLE16=RAY PILLOW - How Do I Hide From A Memory
TTITLE17=RAY PILLOW - We´re Together Again
EXTD=
EXTT0=
EXTT1=
EXTT2=
EXTT3=
EXTT4=
EXTT5=
EXTT6=
EXTT7=
EXTT8=
EXTT9=
EXTT10=
EXTT11=
EXTT12=
EXTT13=
EXTT14=
EXTT15=
EXTT16=
EXTT17=
PLAYORDER=
